<?xml version="1.0" encoding="UTF-8"?>
<svg id="Layer_2" data-name="Layer 2" xmlns="http://www.w3.org/2000/svg" xmlns:xlink="http://www.w3.org/1999/xlink" viewBox="0 0 47.66 47.66">
  <defs>
    <style>
      .cls-1 {
        fill: #fff;
      }

      .cls-1, .cls-2, .cls-3 {
        fill-rule: evenodd;
      }

      .cls-4 {
        fill: url(#linear-gradient);
      }

      .cls-2 {
        fill: #00c9d0;
      }

      .cls-3 {
        fill: #ff1753;
      }
    </style>
    <linearGradient id="linear-gradient" x1="6.98" y1="6.98" x2="40.68" y2="40.68" gradientUnits="userSpaceOnUse">
      <stop offset="0" stop-color="#23004a"/>
      <stop offset=".96" stop-color="#010003"/>
      <stop offset="1" stop-color="#000"/>
    </linearGradient>
  </defs>
  <g id="ELEMENTS">
    <g>
      <circle class="cls-4" cx="23.83" cy="23.83" r="23.83"/>
      <path class="cls-3" d="M28.82,20.11c1.73,1.24,3.85,1.96,6.14,1.96v-4.41c-.43,0-.87-.04-1.29-.13v3.47c-2.29,0-4.41-.73-6.14-1.96v8.99c0,4.5-3.65,8.14-8.15,8.14-1.68,0-3.24-.51-4.54-1.38,1.48,1.51,3.54,2.45,5.82,2.45,4.5,0,8.15-3.65,8.15-8.14v-8.99h0ZM30.41,15.66c-.88-.97-1.47-2.21-1.59-3.59v-.57h-1.22c.31,1.75,1.36,3.25,2.81,4.16h0ZM17.7,31.34c-.49-.65-.76-1.44-.76-2.26,0-2.06,1.67-3.72,3.73-3.72.38,0,.76.06,1.13.17v-4.5c-.43-.06-.86-.08-1.29-.07v3.51c-.37-.12-.75-.17-1.13-.17-2.06,0-3.73,1.67-3.73,3.72,0,1.45.83,2.71,2.05,3.33Z"/>
      <path class="cls-1" d="M27.53,19.04c1.73,1.24,3.85,1.96,6.14,1.96v-3.47c-1.28-.27-2.41-.94-3.26-1.87-1.46-.91-2.51-2.41-2.81-4.16h-3.21v17.6c0,2.05-1.67,3.71-3.73,3.71-1.21,0-2.29-.58-2.97-1.47-1.22-.61-2.05-1.87-2.05-3.33,0-2.06,1.67-3.72,3.73-3.72.39,0,.77.06,1.13.17v-3.51c-4.42.09-7.98,3.7-7.98,8.14,0,2.22.89,4.23,2.32,5.69,1.3.87,2.86,1.38,4.54,1.38,4.5,0,8.15-3.65,8.15-8.14v-8.99Z"/>
      <path class="cls-2" d="M33.68,17.53v-.94c-1.15,0-2.28-.32-3.26-.93.87.95,2.01,1.6,3.26,1.87ZM27.6,11.5c-.03-.17-.05-.34-.07-.51v-.57h-4.43v17.6c0,2.05-1.67,3.71-3.73,3.71-.6,0-1.17-.14-1.68-.4.68.89,1.76,1.47,2.97,1.47,2.05,0,3.72-1.66,3.73-3.71V11.5h3.21ZM20.5,20.96v-1c-.37-.05-.74-.08-1.12-.08-4.5,0-8.15,3.65-8.15,8.14,0,2.82,1.43,5.3,3.61,6.77-1.44-1.47-2.32-3.48-2.32-5.69,0-4.44,3.55-8.05,7.98-8.14h0Z"/>
    </g>
  </g>
</svg>